<?xml version="1.0" encoding="UTF-8" standalone="no"?>
<!-- Created with Inkscape (http://www.inkscape.org/) -->

<svg
   xmlns:dc="http://purl.org/dc/elements/1.1/"
   xmlns:cc="http://creativecommons.org/ns#"
   xmlns:rdf="http://www.w3.org/1999/02/22-rdf-syntax-ns#"
   xmlns:svg="http://www.w3.org/2000/svg"
   xmlns="http://www.w3.org/2000/svg"
   xmlns:sodipodi="http://sodipodi.sourceforge.net/DTD/sodipodi-0.dtd"
   xmlns:inkscape="http://www.inkscape.org/namespaces/inkscape"
   id="svg2"
   viewBox="0 0 470 820"
   sodipodi:docname="BombSilhouette.svg"
   version="1.1"
   inkscape:version="0.91 r13725">
  <defs
     id="defs4" />
  <sodipodi:namedview
     id="base"
     fit-margin-left="0"
     inkscape:zoom="0.70710678"
     borderopacity="1.0"
     inkscape:current-layer="layer1"
     inkscape:cx="-207.44826"
     inkscape:cy="394.96966"
     inkscape:object-paths="true"
     inkscape:window-maximized="1"
     showgrid="false"
     fit-margin-right="0"
     inkscape:snap-global="false"
     showguides="true"
     bordercolor="#666666"
     inkscape:window-x="-8"
     inkscape:guide-bbox="true"
     inkscape:snap-smooth-nodes="true"
     inkscape:object-nodes="true"
     inkscape:window-y="-8"
     fit-margin-bottom="0"
     inkscape:window-width="1600"
     inkscape:pageopacity="0.0"
     inkscape:pageshadow="2"
     pagecolor="#ffffff"
     inkscape:document-units="px"
     inkscape:window-height="837"
     fit-margin-top="0" />
  <g
     id="layer1"
     inkscape:label="Calque 1"
     inkscape:groupmode="layer"
     transform="translate(10 -242.34)">
    <path
       style="fill:#ffffff"
       d="M 236.39062 10.009766 C 236.2368 10.012766 236.08506 10.044681 235.93164 10.050781 C 235.61201 10.064081 235.29211 10.06885 234.97461 10.09375 C 234.8088 10.10575 234.64109 10.119066 234.47461 10.134766 C 233.72015 10.206466 232.9551 10.32462 232.1875 10.46875 C 231.82978 10.53595 231.46416 10.63531 231.10352 10.71875 C 230.89469 10.76745 230.68849 10.79027 230.48047 10.84375 C 230.32691 10.88305 230.17543 10.924507 230.02148 10.966797 C 229.83583 11.017997 229.66532 11.079856 229.48047 11.134766 C 229.15884 11.230166 228.84747 11.316971 228.52344 11.425781 C 228.38454 11.472081 228.24593 11.543547 228.10742 11.591797 C 227.22897 11.901477 226.34036 12.221612 225.44336 12.632812 C 2.3233594 154.99281 21.253828 246.61391 67.923828 461.00391 C 77.058838 502.97477 88.659982 540.05125 101.4707 576.08008 L 10 669.99023 L 10 810.00977 L 110.90039 810.00977 L 170.43945 767.26367 L 213.33789 767.26367 L 217.53906 767.26367 L 217.00977 801.56055 L 247.21289 801.56055 L 247.7793 767.26367 L 260.4082 767.26367 L 299.49023 767.26367 C 299.49509 767.2479 299.49905 767.23257 299.50391 767.2168 L 359.10938 810.00977 L 460.00977 810.00977 L 460.00977 669.99023 L 361.72461 569.08398 C 373.25271 531.33756 384.40665 493.02641 395.37695 451.47461 C 442.04695 274.69461 471.46389 155.00453 248.33789 12.644531 C 247.01719 12.039111 245.70698 11.573547 244.42578 11.185547 C 244.28953 11.144247 244.14562 11.099437 244.00977 11.060547 C 243.80414 11.001747 243.5912 10.948641 243.38477 10.894531 C 243.13626 10.829631 242.88181 10.785696 242.63477 10.728516 C 242.27332 10.644316 241.91699 10.547786 241.55273 10.478516 C 240.79121 10.336076 240.05524 10.215731 239.30664 10.144531 C 238.82174 10.098431 238.32921 10.078047 237.84961 10.060547 C 237.52958 10.047047 237.21487 10.020531 236.89258 10.019531 C 236.72943 10.019831 236.55519 10.015531 236.39258 10.019531 L 236.39062 10.009766 z "
       transform="translate(-10,242.34)"
       id="path3989" />
  </g>
  <metadata
     id="metadata97">
    <rdf:RDF>
      <cc:Work>
        <dc:format>image/svg+xml</dc:format>
        <dc:type
           rdf:resource="http://purl.org/dc/dcmitype/StillImage" />
        <cc:license
           rdf:resource="http://creativecommons.org/licenses/publicdomain/" />
        <dc:publisher>
          <cc:Agent
             rdf:about="http://openclipart.org/">
            <dc:title>Openclipart</dc:title>
          </cc:Agent>
        </dc:publisher>
        <dc:title></dc:title>
      </cc:Work>
      <cc:License
         rdf:about="http://creativecommons.org/licenses/publicdomain/">
        <cc:permits
           rdf:resource="http://creativecommons.org/ns#Reproduction" />
        <cc:permits
           rdf:resource="http://creativecommons.org/ns#Distribution" />
        <cc:permits
           rdf:resource="http://creativecommons.org/ns#DerivativeWorks" />
      </cc:License>
    </rdf:RDF>
  </metadata>
</svg>
